<svg version="1.1" xmlns="http://www.w3.org/2000/svg" width="165" height="42" viewBox="0 0 165.68 42.72" enable-background="new 0 0 165.68 42.72"><path fill="#f01f4b" d="m26.24 39.02v2.268h139.44v-2.268h-139.44m-26.24 0v2.268h10.811c-.394-.681-.701-1.447-.951-2.268h-9.86"/><path fill="#dfe8f1" d="m14.929 36.963h-2.88c.672 5.185 7.06 6.576 10.849 5.328v-4.271c-2.784.959-5.424 1.199-7.969-1.057m-1.248-36.963c-8.208 0-13.681 1.584-13.681 18.05 0 15.986 5.04 17.521 13.681 17.521s13.777-2.02 13.777-17.521c0-16.465-5.472-18.05-13.777-18.05m0 31.3c-7.152 0-9.265-1.681-9.265-13.25 0-13.488 3.216-13.776 9.265-13.776 6.192 0 9.361.336 9.361 13.776 0 11.281-2.4 13.25-9.361 13.25m34.848-2.16c-3.264 1.729-4.992 2.592-8.545 2.592-2.207 0-3.888-1.248-3.888-4.272v-17.57h-4.416v17.521c0 4.416 2.448 8.4 7.777 8.4 3.889 0 6.24-1.68 9.07-3.312l1.104 2.88h3.313v-25.489h-4.417v19.25m21.888-19.731c-4.753.049-8.834.48-12.242 1.488v3.02c3.984-.288 8.737-.528 11.857-.528 2.352 0 3.793.816 3.793 3.697.047.047 0 2.783 0 2.783 0 .049-9.793 0-9.793 0-4.369 0-6.673 2.736-6.673 6.529v2.784c0 3.888 2.735 6.433 6.624 6.48 4.225 0 9.697-3.12 9.842-3.265l1.055 2.977h3.361v-18.336c.0001-5.568-3.456-7.68-7.824-7.633m3.409 19.874c0 0-5.762 2.353-9.313 2.353-1.536 0-2.736-.624-2.736-2.881v-2.064c0-1.44.673-2.784 2.641-2.977l9.409-.672v6.241zm13.774-16.177l-1.055-3.217h-3.361v25.49h4.416v-18.528c3.168-1.969 5.137-2.784 8.689-2.784 1.393 0 2.977.096 3.6.239v-4.32c-.623-.287-2.064-.384-3.359-.384-3.745 0-6.337 1.824-8.93 3.504m23.09-10.369h-3.455l-.961 7.104-4.561 1.01v2.977h4.561v12.433c0 6.77 2.592 9.07 6.336 9.07h4.656v-2.977c-.336 0-3.984-1.01-3.984-1.01-1.535-.384-2.592-1.296-2.592-5.376v-12.145h6.961v-3.984h-6.961v-7.105m21.888 6.912c-8.449 0-11.328 2.929-11.328 13.346 0 9.121 2.688 12.625 11.328 12.625 8.689 0 11.328-3.168 11.328-12.625 0-10.129-2.687-13.346-11.328-13.346m0 21.891c-4.561 0-6.912-.576-6.912-8.545 0-8.593 1.92-9.313 6.912-9.313 5.184 0 6.912.72 6.912 9.313 0 7.92-2.111 8.545-6.912 8.545"/></svg>